<svg xmlns="http://www.w3.org/2000/svg" viewBox="0 0 98 98" fill="#666" >
<g>
	<polygon class="st0" points="37.2,24 37.2,23.9 33.1,33.8 24,14.5 15.7,14.5 15.7,15.8 15.7,15.8 15.7,20.3 15.7,20.3 15.7,45.5 
		24,45.5 24,37.9 24,37.9 24,33.5 29.7,45.5 35.5,45.5 36.5,42.9 36.5,42.9 36.9,42.3 37,42 37,42 37.9,39.7 37.9,39.7 37.9,39.7 
		40.9,32.4 41.2,32.4 41.2,45.5 49.7,45.5 49.7,14.5 41.2,14.5 	"/>
	<polygon class="st0" points="83.2,14.5 73.4,14.5 73.4,14.6 73.4,14.5 64.4,27.6 64.4,14.5 55.6,14.5 55.6,45.5 64.4,45.5 
		64.4,31.7 70.4,40.9 73.3,45.5 83.4,45.5 72.6,29.1 	"/>
	<path class="st0" d="M44.8,56.9c-0.2-1.2-0.8-2.2-1.6-3.1c-0.7-0.8-1.8-1.6-2.9-1.9c-1.2-0.5-2.8-0.8-4.7-1.1
		c-2.3-0.2-4.4-0.4-6.8-0.4l0,0H15.7l0,0l0,0v33.1h14.2l0,0c1.9,0,4-0.1,5.9-0.4c1.9-0.2,3.4-0.6,4.7-1.1c1.1-0.5,2.2-1.1,2.9-1.9
		c0.7-1,1.2-1.9,1.6-3.1c0.2-1.3,0.5-2.6,0.6-4c0.1-1.6,0.1-3.6,0.1-6.1s-0.1-4.6-0.1-6.1C45.3,59.5,45,58.2,44.8,56.9z M34.7,72.1
		c0,1.2-0.2,2.2-0.6,2.8c-0.4,0.5-1,1-1.6,1c-0.7,0.1-1.9,0.2-3.6,0.2l0,0l0,0h-2.6V57.7h2.6c1.2,0,2.3,0,3.5,0.1
		c0.8,0.1,1.3,0.5,1.8,1.1c0.4,0.6,0.6,1.6,0.6,2.8c0.1,1.7,0.1,3.4,0.1,5.3C34.8,68.7,34.8,70.5,34.7,72.1L34.7,72.1z"/>
	<path class="st0" d="M77.9,71.1c1.8-0.7,3.1-2,3.8-3.7c0.5-1.3,0.8-3.4,0.8-6c0-2-0.1-3.6-0.4-4.9c-0.2-1.2-0.7-2.3-1.6-3.2
		c-0.8-1-2-1.7-3.6-2.2c-1.6-0.5-3.6-0.6-6-0.6h-18v33h10.4V72.2h4.3l4.7,11.3h10.9L77.9,71.1z M71.9,63.2c-0.1,0.4-0.2,0.7-0.6,1
		c-0.4,0.2-0.8,0.5-1.3,0.5c-0.8,0.1-1.7,0.1-2.5,0.1h-4v-7.1H66l0,0h1.4c0.8,0,1.7,0,2.5,0.1c0.5,0,0.8,0.2,1.2,0.5
		c0.2,0.2,0.5,0.6,0.6,1c0.1,0.6,0.1,1.3,0.1,1.9C72,61.9,72,62.6,71.9,63.2z"/>
</g>
</svg>
